name Walk9.mot
datacolumns 19
datarows 20
range 2.59500000 2.61400000
endheader

                time	   L_ground_force_vx	   L_ground_force_vy	   L_ground_force_vz	   L_ground_force_px	   L_ground_force_py	   L_ground_force_pz	   R_ground_force_vx	   R_ground_force_vy	   R_ground_force_vz	   R_ground_force_px	   R_ground_force_py	   R_ground_force_pz	   L_ground_torque_x	   L_ground_torque_y	   L_ground_torque_z	   R_ground_torque_x	   R_ground_torque_y	   R_ground_torque_z	
          2.59500000	          0.00000000	          0.00000000	          0.00000000	          0.00000000	          0.00000000	          0.00000000	         12.23623045	        105.06276345	          2.54174621	          0.39593712	          0.00000000	          0.11455263	          0.00000000	          0.00000000	          0.00000000	          0.00000000	         -4.10799862	          0.00000000	
          2.59600000	          0.00000000	          0.00000000	          0.00000000	          0.00000000	          0.00000000	          0.00000000	         10.41473804	         99.09161022	          2.49067599	          0.39685469	          0.00000000	          0.11336599	          0.00000000	          0.00000000	          0.00000000	          0.00000000	         -3.80939074	          0.00000000	
          2.59700000	          0.00000000	          0.00000000	          0.00000000	          0.00000000	          0.00000000	          0.00000000	          8.62427874	         93.52553722	          2.44107528	          0.39774245	          0.00000000	          0.11208120	          0.00000000	          0.00000000	          0.00000000	          0.00000000	         -3.51260596	          0.00000000	
          2.59800000	          0.00000000	          0.00000000	          0.00000000	          0.00000000	          0.00000000	          0.00000000	          6.88489053	         88.42271368	          2.37774690	          0.39883031	          0.00000000	          0.11091374	          0.00000000	          0.00000000	          0.00000000	          0.00000000	         -3.21952015	          0.00000000	
          2.59900000	          0.00000000	          0.00000000	          0.00000000	          0.00000000	          0.00000000	          0.00000000	          5.21238716	         83.79453425	          2.29122511	          0.40027364	          0.00000000	          0.11004657	          0.00000000	          0.00000000	          0.00000000	          0.00000000	         -2.93195507	          0.00000000	
          2.60000000	          0.00000000	          0.00000000	          0.00000000	          0.00000000	          0.00000000	          0.00000000	          3.62024885	         79.57122341	          2.18338044	          0.40220732	          0.00000000	          0.10946379	          0.00000000	          0.00000000	          0.00000000	          0.00000000	         -2.65321312	          0.00000000	
          2.60100000	          0.00000000	          0.00000000	          0.00000000	          0.00000000	          0.00000000	          0.00000000	          2.11952094	         75.63729463	          2.06925972	          0.40460202	          0.00000000	          0.10891749	          0.00000000	          0.00000000	          0.00000000	          0.00000000	         -2.38892927	          0.00000000	
          2.60200000	          0.00000000	          0.00000000	          0.00000000	          0.00000000	          0.00000000	          0.00000000	          0.71572270	         71.89811263	          1.97466905	          0.40718484	          0.00000000	          0.10813683	          0.00000000	          0.00000000	          0.00000000	          0.00000000	         -2.14335829	          0.00000000	
          2.60300000	          0.00000000	          0.00000000	          0.00000000	          0.00000000	          0.00000000	          0.00000000	         -0.59113895	         68.32669595	          1.93254361	          0.40969675	          0.00000000	          0.10714329	          0.00000000	          0.00000000	          0.00000000	          0.00000000	         -1.91445665	          0.00000000	
          2.60400000	          0.00000000	          0.00000000	          0.00000000	          0.00000000	          0.00000000	          0.00000000	         -1.80579673	         64.97282162	          1.96793173	          0.41208520	          0.00000000	          0.10630075	          0.00000000	          0.00000000	          0.00000000	          0.00000000	         -1.69435441	          0.00000000	
          2.60500000	          0.00000000	          0.00000000	          0.00000000	          0.00000000	          0.00000000	          0.00000000	         -2.94448748	         61.91572955	          2.07624955	          0.41432707	          0.00000000	          0.10599424	          0.00000000	          0.00000000	          0.00000000	          0.00000000	         -1.47708619	          0.00000000	
          2.60600000	          0.00000000	          0.00000000	          0.00000000	          0.00000000	          0.00000000	          0.00000000	         -4.03411128	         59.17586233	          2.21972932	          0.41623329	          0.00000000	          0.10623111	          0.00000000	          0.00000000	          0.00000000	          0.00000000	         -1.26407353	          0.00000000	
          2.60700000	          0.00000000	          0.00000000	          0.00000000	          0.00000000	          0.00000000	          0.00000000	         -5.09505391	         56.67792445	          2.34912441	          0.41766726	          0.00000000	          0.10655207	          0.00000000	          0.00000000	          0.00000000	          0.00000000	         -1.05862827	          0.00000000	
          2.60800000	          0.00000000	          0.00000000	          0.00000000	          0.00000000	          0.00000000	          0.00000000	         -6.13232345	         54.31458694	          2.42845225	          0.41887166	          0.00000000	          0.10644039	          0.00000000	          0.00000000	          0.00000000	          0.00000000	         -0.85926665	          0.00000000	
          2.60900000	          0.00000000	          0.00000000	          0.00000000	          0.00000000	          0.00000000	          0.00000000	         -7.14132802	         52.03222341	          2.44368370	          0.42027059	          0.00000000	          0.10580712	          0.00000000	          0.00000000	          0.00000000	          0.00000000	         -0.66299305	          0.00000000	
          2.61000000	          0.00000000	          0.00000000	          0.00000000	          0.00000000	          0.00000000	          0.00000000	         -8.10999127	         49.85331286	          2.39958760	          0.42198952	          0.00000000	          0.10499439	          0.00000000	          0.00000000	          0.00000000	          0.00000000	         -0.47081600	          0.00000000	
          2.61100000	          0.00000000	          0.00000000	          0.00000000	          0.00000000	          0.00000000	          0.00000000	         -9.01645767	         47.82730539	          2.31022530	          0.42379145	          0.00000000	          0.10442421	          0.00000000	          0.00000000	          0.00000000	          0.00000000	         -0.28717065	          0.00000000	
          2.61200000	          0.00000000	          0.00000000	          0.00000000	          0.00000000	          0.00000000	          0.00000000	         -9.83340386	         45.96086415	          2.18446338	          0.42540343	          0.00000000	          0.10431990	          0.00000000	          0.00000000	          0.00000000	          0.00000000	         -0.11723623	          0.00000000	
          2.61300000	          0.00000000	          0.00000000	          0.00000000	          0.00000000	          0.00000000	          0.00000000	        -10.53740271	         44.18940276	          2.02267015	          0.42674727	          0.00000000	          0.10458917	          0.00000000	          0.00000000	          0.00000000	          0.00000000	          0.03336613	          0.00000000	
          2.61400000	          0.00000000	          0.00000000	          0.00000000	          0.00000000	          0.00000000	          0.00000000	        -11.11453598	         42.41739680	          1.82880796	          0.42801033	          0.00000000	          0.10488300	          0.00000000	          0.00000000	          0.00000000	          0.00000000	          0.15770297	          0.00000000	
